<mxfile host="app.diagrams.net" modified="2023-09-21T18:54:01.791Z" agent="Mozilla/5.0 (X11; Linux x86_64; rv:109.0) Gecko/20100101 Firefox/114.0" etag="zbuarXAuDpJWH9lfcNed" version="21.8.0" type="device">
  <diagram name="PÃ¡gina-1" id="LBPSBuQtgml8UkAolp14">
    <mxGraphModel dx="1434" dy="752" grid="1" gridSize="10" guides="1" tooltips="1" connect="1" arrows="1" fold="1" page="1" pageScale="1" pageWidth="827" pageHeight="1169" math="0" shadow="0">
      <root>
        <mxCell id="0" />
        <mxCell id="1" parent="0" />
        <mxCell id="ngpTeVITk2ib7n4ZQ3D3-1" value="Proveedor" style="rounded=0;whiteSpace=wrap;html=1;" vertex="1" parent="1">
          <mxGeometry x="140" y="255" width="120" height="60" as="geometry" />
        </mxCell>
        <mxCell id="ngpTeVITk2ib7n4ZQ3D3-2" value="id" style="ellipse;whiteSpace=wrap;html=1;" vertex="1" parent="1">
          <mxGeometry x="240" y="145" width="100" height="50" as="geometry" />
        </mxCell>
        <mxCell id="ngpTeVITk2ib7n4ZQ3D3-3" value="nombre" style="ellipse;whiteSpace=wrap;html=1;" vertex="1" parent="1">
          <mxGeometry y="310" width="100" height="45" as="geometry" />
        </mxCell>
        <mxCell id="ngpTeVITk2ib7n4ZQ3D3-4" value="direccion" style="ellipse;whiteSpace=wrap;html=1;" vertex="1" parent="1">
          <mxGeometry x="120" y="150" width="90" height="45" as="geometry" />
        </mxCell>
        <mxCell id="ngpTeVITk2ib7n4ZQ3D3-6" value="telefono" style="ellipse;whiteSpace=wrap;html=1;" vertex="1" parent="1">
          <mxGeometry x="10" y="230" width="80" height="40" as="geometry" />
        </mxCell>
        <mxCell id="ngpTeVITk2ib7n4ZQ3D3-7" value="pagina web" style="ellipse;whiteSpace=wrap;html=1;" vertex="1" parent="1">
          <mxGeometry y="150" width="90" height="40" as="geometry" />
        </mxCell>
        <mxCell id="ngpTeVITk2ib7n4ZQ3D3-8" value="entrega producto" style="rhombus;whiteSpace=wrap;html=1;" vertex="1" parent="1">
          <mxGeometry x="160" y="340" width="80" height="80" as="geometry" />
        </mxCell>
        <mxCell id="ngpTeVITk2ib7n4ZQ3D3-12" value="compra" style="rhombus;whiteSpace=wrap;html=1;" vertex="1" parent="1">
          <mxGeometry x="490" y="340" width="80" height="80" as="geometry" />
        </mxCell>
        <mxCell id="ngpTeVITk2ib7n4ZQ3D3-14" value="&lt;div&gt;producto&lt;/div&gt;&lt;div&gt;&lt;br&gt;&lt;/div&gt;" style="rounded=0;whiteSpace=wrap;html=1;" vertex="1" parent="1">
          <mxGeometry x="470" y="450" width="120" height="70" as="geometry" />
        </mxCell>
        <mxCell id="ngpTeVITk2ib7n4ZQ3D3-16" value="tiene" style="rhombus;whiteSpace=wrap;html=1;" vertex="1" parent="1">
          <mxGeometry x="320" y="440" width="80" height="80" as="geometry" />
        </mxCell>
        <mxCell id="ngpTeVITk2ib7n4ZQ3D3-17" value="Cliente" style="rounded=0;whiteSpace=wrap;html=1;" vertex="1" parent="1">
          <mxGeometry x="470" y="255" width="120" height="60" as="geometry" />
        </mxCell>
        <mxCell id="ngpTeVITk2ib7n4ZQ3D3-18" value="Empresa" style="rounded=0;whiteSpace=wrap;html=1;" vertex="1" parent="1">
          <mxGeometry x="150" y="450" width="120" height="60" as="geometry" />
        </mxCell>
      </root>
    </mxGraphModel>
  </diagram>
</mxfile>
